<svg xmlns="http://www.w3.org/2000/svg" width="36" height="38" fill="none"><path fill="#fff" d="M34.954 14.202H16.31V33.61h18.643z"/><path fill="#084981" d="m18.548 1.196-.015.528-.358.038c-.194.016-.669.06-1.046.095-.378.036-.92.115-1.2.17-.279.054-.576.118-.663.134-.148.027-.327.075-.791.21-.128.038-.368.108-.536.162-.43.124-.91.302-.97.361a.3.3 0 0 1-.154.043.4.4 0 0 0-.199.081.4.4 0 0 1-.168.08c-.056 0-.42.173-1.19.556-.618.313-2.088 1.288-2.63 1.746a9 9 0 0 1-.485.394c-.454.34-1.93 1.919-2.558 2.732-.48.625-1.72 2.62-1.73 2.776 0 .022-.136.323-.297.674-.398.855-.705 1.676-.643 1.74.025.028.214-.059.47-.22.234-.146.439-.264.459-.264s.2-.07.414-.157a6 6 0 0 1 2.43-.458q.551.002 1.097.092c.858.167 1.848.582 2.502 1.045.378.264.48.28.72.107.189-.134.47-.312.786-.495.23-.135.924-.41 1.353-.534 1.68-.485 3.555-.194 5.13.792a3 3 0 0 1 .27.21c.204.184.424.195.638.027.47-.35 1.231-.727 2.027-.997.399-.135 1.134-.243 1.71-.248a6.3 6.3 0 0 1 3.59 1.04l.526.345.214-.102a3 3 0 0 0 .394-.227c.526-.377 1.603-.807 2.369-.96.715-.133 1.593-.155 2.109-.053 1.144.238 1.654.437 2.737 1.093.02.01.05-.01.066-.054.025-.08-.194-.695-.526-1.44-.102-.22-.24-.538-.312-.7a5 5 0 0 0-.214-.431c-.045-.075-.163-.28-.256-.458-.148-.285-.433-.75-.867-1.417-.73-1.127-2.094-2.636-3.289-3.628-.331-.28-1.245-.97-1.45-1.1-.045-.031-.225-.142-.393-.253a25 25 0 0 0-1.915-1.03 12 12 0 0 1-.474-.23.7.7 0 0 0-.235-.076.25.25 0 0 1-.135-.043c-.061-.06-.399-.184-.894-.333-.21-.064-.475-.15-.585-.193a1.2 1.2 0 0 0-.311-.076.24.24 0 0 1-.148-.047c-.031-.028-.154-.06-.281-.076a13 13 0 0 1-.738-.135c-.46-.095-.827-.143-2.247-.27l-.409-.038-.015-.528-.015-.522h-.654zm2.308 5.201.09.124.133-.129.137-.135.136.146c.132.142.132.145.04.253-.086.095-.102.102-.209.027-.153-.102-.22-.102-.337.01-.09.087-.102.081-.23-.053s-.133-.146-.04-.254c.117-.14.169-.134.28.011m-8.272.07c.097.114.113.162.072.232-.087.14-.22.14-.358.006l-.123-.124.113-.124c.138-.157.148-.157.296.01m1.35.194c.015.092.03.54.03.992 0 .91.016.965.316.933.143-.011.173-.044.194-.173.03-.178.153-.259.153-.097 0 .146.173.291.315.27.082-.011.133-.07.169-.195.061-.22.107-.22.199.017.112.285.393.253.444-.048.03-.167.117-.15.2.038.065.15.106.172.295.19.281.021.368-.054.368-.313 0-.495.51-.727.817-.377.327.372.405 1.04.153 1.32-.18.206-.367.178-.638-.086l-.23-.22-.133.166c-.148.19-.418.232-.53.087-.087-.108-.154-.103-.287.032l-.116.113-.204-.124c-.195-.113-.215-.113-.302-.032-.122.119-.22.113-.408 0-.148-.092-.158-.092-.255 0q-.093.09-.353.091c-.225 0-.28-.02-.388-.161-.18-.221-.23-.544-.245-1.504l-.01-.835.173-.124c.22-.161.23-.161.271.04zm10.432.06.117.113.128-.124.135-.13.138.146.134.146-.102.107c-.102.108-.107.114-.265.016-.148-.09-.159-.09-.266.011-.107.102-.107.103-.24-.043-.132-.146-.132-.145-.04-.253.11-.135.116-.135.259.01zm-11.562.576q.152.183.24.41c.086.285.036.782-.113 1.062-.168.323-.388.437-.883.475l-.408.027-.031.242a1.8 1.8 0 0 1-.36.862c-.158.205-.18.216-.45.216-.459 0-.872-.162-.632-.248.592-.21 1.292-.739 1.292-.97 0-.096-.194-.453-.246-.453a.7.7 0 0 1-.158-.113l-.127-.108.122-.243c.072-.13.143-.238.168-.238s.118.087.21.19c.168.19.173.19.612.19q.447 0 .593-.08c.225-.124.184-.173-.112-.15-.368.026-.603-.12-.603-.373 0-.485.25-.906.536-.906.13-.002.212.047.35.208m8.343-.14c.138.081.281.28.378.523.097.253.097 1.25 0 1.509-.214.566-.526.765-1.236.797-.612.027-.883-.075-1.098-.415-.122-.2-.134-.253-.112-.609.026-.377.153-.776.24-.722.02.016.03.157.015.313-.015.237 0 .318.102.475.169.264.409.34 1.016.307.547-.021.838-.15.894-.388.045-.19-.01-.243-.235-.243-.25 0-.597-.145-.664-.274-.066-.13-.06-.275.026-.57.107-.34.22-.56.352-.674.133-.113.174-.115.322-.029m5.622.582c.352.119.75.232.888.248s.266.06.276.095-.026.156-.082.264c-.09.162-.143.194-.28.194-.108 0-.42.13-.823.333l-.654.342-.602.022c-.54.016-.617.005-.786-.095-.18-.113-.19-.113-.286-.021-.072.07-.21.102-.49.113-.44.027-.521.07-.521.275 0 .183-.215.665-.419.932l-.163.216-.383-.033c-.358-.038-.516-.095-.516-.194 0-.021.194-.134.43-.258.45-.238.847-.593.847-.76 0-.087-.051-.108-.332-.143-.245-.027-.373-.07-.485-.172-.174-.151-.19-.291-.082-.669.143-.49.332-.749.552-.749.158 0 .444.333.54.618l.09.27.29.016c.312.016.322.01.235-.146-.097-.156-.005-.388.24-.636.302-.307.5-.318.73-.043.18.216.21.469.077.665-.071.108-.071.124.005.151.164.07 1.267-.016 1.476-.113.112-.047.18-.108.153-.135-.061-.064-.72-.323-.822-.323-.045 0-.138.054-.204.119-.087.08-.135.102-.174.059-.122-.13.301-.665.526-.665.065.002.395.1.749.223"/><path fill="#084981" d="M16.996 8.079c-.092.259.22.846.405.77.21-.08-.015-.797-.26-.835-.068-.01-.131.016-.145.065m.255.28c.045.119-.015.173-.071.076-.057-.097-.062-.162-.005-.162.025 0 .06.04.076.087M12.176 7.653c-.097.124-.01.19.26.19s.312-.054.138-.183c-.143-.107-.316-.107-.398-.007M20.723 7.793c-.09.108-.09.113.005.19.107.081.465.103.506.027.036-.054-.164-.253-.306-.296-.072-.023-.138-.001-.205.08M24.287 8.117c-.143.059-.127.142.051.28.102.08.18.095.322.07.235-.048.286-.178.122-.307-.132-.108-.311-.124-.495-.043M22.577 8.313c-.067.064-.036.22.045.253.107.043.405.043.444-.006.066-.064-.184-.285-.322-.285-.075-.002-.152.014-.167.038"/><path fill="#000" d="M16.311 16.546v2.345l2.237-.011 2.231-.016.016-2.334.01-2.328H16.31zm3.83-.027v1.674l-1.593-.011-1.598-.017-.016-1.66-.01-1.654h3.217z"/><path fill="#000" d="M17.588 16.52v1.023l.96-.01.955-.017.015-1.013.01-1.008h-1.94zM22.745 14.849v.652l.315-.016.315-.017-.01-.617-.005-.62-.311-.016-.307-.016zM24.022 14.525v.329l.321-.016.315-.017.016-.312.015-.308h-.667z"/><path fill="#000" d="M26.61 14.24c-.02.016-.035.161-.035.323v.285h-.608l-.015.306-.015.313-.315.017-.322.016v.312c0 .345-.03.38-.322.38-.24 0-.28-.053-.301-.377l-.015-.296-.315-.016-.322-.017v1.348l.322.016.315.016.005.307.005.308-.643.016-.644.016-.015.332-.015.333.321.016.322.016.015.307.016.313h-.615l-.014-.305-.015-.307-.315-.017-.322-.016v-1.337l.322-.016.315-.017.015-.264c.01-.145-.005-.285-.03-.312-.052-.054-1.824-.092-1.905-.043-.03.021-.045.167-.036.328l.016.291.306.028.306.027.015.306.016.308-.322.016-.321.016v1.348l.321.016.322.016-.016.307-.015.308-.955.016-.96.01v.647h-.612v-.647H16.31v.647h.373q.32 0 .639.038l.27.032-.016.302-.015.302-.315.016-.322.016v.642h-.614v.695l.297.016.29.016.016.307.015.313h1.267l.015.332.015.34.322.016.322.016-.015.31-.015.307-.624.016-.622.016-.016.333-.015.332h-.613l-.016-.34-.015-.332h-.608v4.042h.613l.01-1.33.016-1.336.623-.017.623-.016.015.34.015.34.654.016.649.016v1.288h-.665v-.647h-1.276v1.348h3.825l.016.657.015.665.306.027.307.027.025.323.026.324.306-.006.306-.01.026-.313.026-.318.296-.016.291-.017v1.358l-.623-.016-.63-.016-.016-.34-.015-.34-.315.017-.315.016v3.287l.315.017.315.016.015-.313.016-.313.315-.016.315-.016.015-.657.015-.658.96-.016.955-.01v-.649h.613v1.348h.663v.647h-1.271v-.647h-1.328v.647h1.328v.646l.96-.01.954-.017.016-.635.015-.631h1.884v.647h1.271l.016.307.015.312.322.017.315.016v-.652h.664v.646l.96-.01.955-.017.015-.986.01-.986.296.016.291.016.015.658.016.665h.654l.015-.665.015-.658.296-.016.291-.016v-1.989h-1.275v.323c0 .297.01.324.123.356a.3.3 0 0 0 .173 0 .44.44 0 0 1 .21 0c.163.038.163.038.148.34l-.016.302-.623.016-.63.016v.641h-.662v-1.293h.25c.394 0 .414-.022.414-.383v-.312l-.315-.017-.322-.016-.015-.307-.015-.308.322-.016.321-.016.016-1.013.01-1.008h.612v-.641l.322-.016.315-.016.015-.333.016-.332-.322-.017-.321-.016-.016-.307-.015-.307-.623-.017-.623-.016v-.65l.322-.016.315-.016v-.642h1.272l.015-.665.015-.657.28-.027.282-.027v-.645l-.63-.016-.63-.016.015-.307.015-.307.322-.016.315-.016v-1.343h-.657v.647h-.613v-.647h-.664v.647h-.67l.015.333.016.34.321.015.315.017v1.347l.322-.016.315-.016.025-.324.026-.323.296-.016.291-.016v1.352h-1.935v.701h-.613v1.348h.613v.648h-.613v.7h.613v.647h.663v.647h-.607l-.015-.312-.016-.308-.638-.027-.638-.026-.016-.295c-.01-.162-.045-.312-.077-.333a.9.9 0 0 0-.3-.043h-.246l-.01-.986-.015-.98-.316-.017-.315-.016-.015.663-.015.665-.322.016-.322.016.016.332.015.333.63.016.623.016v1.288h-2.558v-.649h.664v-.641l-.225-.032c-.388-.065-.413-.044-.429.34l-.015.332h-.608v-.645h.613v-.701h.664v-.647h-.664v.641l-.315.016-.321.017-.016.302-.015.301-.618.033c-.342.022-.765.038-.945.038h-.322v-.701h1.277v-.642l.321-.016.315-.016.016-.34.015-.332h1.271v-.641l-.315-.017-.321-.016v-.648l.321-.016.315-.016v-.642h-3.215v-.7h.612v-.647h.664v.647h.663v-.647h-.663v-1.348h-1.276v.647h-.664v-1.288l.321-.016.315-.016.015-.665.016-.658h1.271v.651h-.667l.015.333.016.34h.613l.015-.34.015-.332h.608v1.347h.663v.312c0 .173.01.33.02.34s.165.01.333.006l.311-.022v-.639h-.669l.016-.662.015-.658.322-.016.315-.017v.707h.613v-.698h-.612v-.65h1.271l.016-.34.015-.332.322-.016.315-.016v-.641h-.174a2 2 0 0 1-.332-.033c-.153-.032-.158-.037-.158-.35v-.318h-.662v.318c0 .238-.02.324-.082.35-.107.043-.924.043-1.414 0l-.393-.037v-1.28h.612v.647h.664v-.646h1.277v-.646h-1.266c-.7 0-1.288.015-1.303.036m-.035 2.926v.323h-.613v-.285c0-.161.015-.307.036-.323s.153-.038.306-.038h.27zm-3.83 1.347v.324h-.664v-.285c0-.162.016-.308.036-.324s.169-.037.332-.037h.296zm.613 1.348v.323h-.613v1.348h.598l.035-.631c.02-.35.041-.636.045-.641q.145-.025.292-.025l.28-.016.016.332.015.333h.66v-.7h.224c.363 0 .388.022.388.383v.318h-.612v.647h-.664v1.342l.321.016.315.016.015.332.016.34h.602l.016-.34.015-.332.63-.016.623-.016v.706h-.613v.645h-.659l-.015.332-.015.34h-1.226v-.643l.322-.017.315-.016v-.642h-1.321l-.015.658-.016.665-.29.017-.297.016v.636l.63.016.623.016.015.332.016.34h.658v.647h.613v.646h-.614v-.647h-1.277v-.29c0-.34-.066-.421-.342-.41-.327.016-.322.027-.322-.324v-.323h-.659l-.015.657-.015.665-.291.017-.297.016v-.654H19.53v-.696l-.315-.016-.322-.016-.015-.307-.015-.308.321-.016.322-.016.015-.665.016-.658h-.673v-.698h-.612v-.652l.296.016.291.016.016.307.015.313h.66v-.647h.607l.016-.34.015-.332h.613v.647l-.316.016-.321.017v.64l.96.012.954.016.016.332.015.34h.659v-.695l.322-.017.315-.016v-.593l-.639-.027-.638-.027-.015-.34-.015-.332h-.61v-.643l-.648-.016-.653-.016-.016-.34-.015-.339 1.292.01 1.291.011.016-.264c.02-.393.026-.399.342-.399h.281zm-3.83.997v.674h-1.276v-1.288l.27-.022a18 18 0 0 1 .639-.027l.367-.01zm13.531-.41c0 .416-.02.437-.36.437h-.301v-.7h.663zm-.03 5.212c.016.047.031.35.031.674v.587h-.665v-.636c0-.35.016-.657.036-.674.021-.016.153-.037.302-.037.193 0 .27.021.297.086m-12.234 1.596.015.312h-.669v-.285c0-.162.015-.307.036-.33.02-.021.163-.031.321-.02l.281.016zm5.79 0 .015.34.322.015.315.016v1.289h-1.275v.7h.608l.015.333.015.34.322.015.315.017v.64h.664v-.698h-.668l.016-.313.015-.307.322-.016.315-.016v-.642h.613v.647h-.612v.647h.22c.117 0 .405.016.638.038l.419.032-.01.976-.016.975-.315.016-.322.016v-1.353h-.609l-.015.308-.015.312-.316.016-.321.017v-.653h-.665v.647h-.608l-.015-.665-.015-.657-.624-.016-.627-.014v.712l-.315-.016-.322-.016-.015-.308-.016-.302.337-.037.332-.038v-.637H23.41v-.647l.934-.01.93-.017.025-.323.026-.323.321-.016.315-.017v-.636c0-.35.016-.652.036-.668.021-.016.153-.038.302-.038h.27zm-3.84.69v.323h.613v.647h-1.277v-1.294h.664zm1.94-.07c0 .366-.035.404-.362.38l-.276-.017-.017-.309-.015-.307h.669zm4.484.727.015.313h-.669v-.285c0-.162.015-.308.036-.33.02-.02.163-.031.321-.02l.281.016zm2.564.665v.997h-1.89V28.27h1.89zm0 2.02v.324h-.614v.7h.613v.648h-.613v-.65h-.664v.648h-.612v-.647h.612v-.7h-.612v-.648h1.89z"/><path fill="#000" d="M19.53 23.227v.35h.612v.648h.664v-.641l-.315-.017-.322-.016-.015-.34-.015-.332h-.609zM21.438 24.302c-.015.038-.02.19-.01.332l.015.264.322.017.315.016v-.706h-.307c-.212 0-.314.023-.335.077M20.141 25.25v.324h.664v-.647h-.664zM30.491 28.948c-.02.021-.036.183-.036.356v.312h.67l-.016-.34-.015-.332-.281-.016c-.159-.012-.303 0-.322.02M30.465 16.53l.015 2.334h4.443v-4.635l-2.237-.016-2.23-.01zm3.86-.027-.015 1.66-1.593.016-1.598.011v-3.342h3.216z"/><path fill="#000" d="M31.753 15.565c-.01.038-.016.49-.01 1.008l.015.943.96.016.954.011v-2.048h-.945c-.724 0-.954.016-.974.07"/><path fill="#084981" d="M10.67 14.93c-.74.398-1.088 1.207-.873 2.047.09.378.194.56.45.814.439.448 1.035.604 1.593.428.315-.103.515-.232.78-.523.313-.34.425-.658.425-1.191 0-.534-.107-.814-.45-1.188-.373-.404-.562-.485-1.16-.507-.464-.016-.535-.005-.765.12"/><path fill="#000" d="M21.438 14.924a1 1 0 0 0-.01.307l.015.237.322.017.315.016v-.652h-.307c-.212 0-.314.02-.335.075M29.179 18.54v.356l.322-.016.315-.016.015-.34.015-.332h-.667z"/><path fill="#084981" d="M10.629 18.525c-.225.065-1.165.938-1.644 1.53-.164.206-.409.491-.537.642-.255.285-1.01 1.32-1.18 1.606a.9.9 0 0 0-.096.4q-.002.192-.056.376-.06.165-.096.338c-.02.103-.09.383-.153.62s-.133.529-.158.647c-.026.118-.087.372-.138.566-.102.388-.092.38-.531.275-.138-.033-.352-.081-.48-.113-.363-.081-.383-.119-.27-.458.163-.496.107-.636-.27-.642-.214-.005-.214-.005-.286.264-.135.496-.153.528-.306.496a9 9 0 0 1-.521-.145c-.598-.178-.904-.19-1.144-.044s-.355.357-.513 1.014c-.066.28-.174.706-.235.943s-.17.647-.235.917c-.065.269-.173.668-.23.889-.056.22-.123.49-.143.593-.04.19-.076.329-.23.835-.163.534-.076.987.23 1.224.097.075.322.177.506.232.183.054.434.123.562.161.127.038.515.151.867.243 1.057.285 1.022.264 1.125.555.118.323.174.399.414.528.26.14.48.13.735-.033a.8.8 0 0 0 .242-.234.9.9 0 0 0 .144-.661.9.9 0 0 0-.12-.322c-.09-.14-.108-.221-.082-.345.18-.76.367-1.558.434-1.805.045-.162.143-.55.225-.863s.168-.641.194-.728c.051-.166.169-.64.296-1.187.04-.178.112-.447.153-.593s.118-.463.174-.7c.148-.61.301-1.192.398-1.526l.082-.28h.235c.311 0 .546-.135.791-.464a83 83 0 0 1 .526-.716c.179-.242.337-.437.358-.437s.04.588.04 1.31.031 1.509.056 1.762l.048.46-.18.35c-.705 1.326-1.48 3.455-2.109 5.756-.102.383.174.938.536 1.083.19.076.63.076.765 0 .315-.172.44-.377.65-1.092.116-.388.275-.9.357-1.137s.18-.56.224-.717q.092-.315.215-.618c.071-.183.153-.382.173-.442s.184-.442.363-.851c.315-.744.429-.927.475-.787.2.625.577 1.838.669 2.15.138.464.52 1.644.75 2.318.25.727.486.97.946.97.29 0 .694-.22.832-.458.189-.329.184-.57-.026-1.213a40 40 0 0 1-.23-.727c-.035-.146-.275-.906-.806-2.56-.112-.34-.276-.863-.368-1.16a8 8 0 0 0-.22-.646c-.03-.06-.066-.312-.071-.566-.006-.254-.03-.808-.061-1.24-.062-.878-.072-1.778-.02-1.778.015 0 .148.113.29.253.236.232.588.523 1.256 1.051.297.232 1.063.722 1.252.798.189.075.423-.01.663-.253l.194-.194-.025-.534c-.031-.636-.01-.61-.782-1.154-1.103-.787-1.832-1.476-2.565-2.436-.52-.679-.873-1.05-1.138-1.196-.266-.146-.879-.198-1.19-.1m-6.02 7.814c.09.095.071.566-.041 1.003q-.064.225-.102.458c0 .037.275.388.612.786.337.399.624.766.644.825.035.119-.102.367-.2.367-.04 0-.25-.14-.474-.313a9 9 0 0 0-.603-.431c-.25-.156-.28-.13-.454.442l-.135.42.173.178c.194.19.22.302.098.41-.067.054-.17.038-.623-.114-.649-.215-.715-.264-.633-.457.045-.103.096-.135.214-.135.174 0 .357-.162.357-.324q.024-.21.077-.414c.05-.206.061-.324.025-.362s-.393-.07-.806-.086l-.75-.027.015-.19c.005-.102.03-.205.055-.232s.42-.14.879-.259c.46-.118.873-.253.919-.296a.64.64 0 0 0 .123-.28c.06-.34.225-.776.342-.91.117-.135.196-.156.288-.059"/><path fill="#000" d="M29.179 19.86v.319l-.315.016-.322.016-.015.333-.015.34h1.278v.648h-.611v1.342l-.315.016-.322.016v.647h1.275l.015-1.014.01-1.013.297.016.29.016.016.333.015.34h.66v.652l.32-.017.316-.016v-.591l-.316-.016-.32-.016v-2.048l.28.01c.158.011.306-.01.337-.043s.045-.172.036-.318l-.016-.264-.315-.016-.321-.016v.652h-.666v-.647h-1.276zm1.276.674v.35h-.612v-.64l.194-.022c.454-.049.418-.076.418.312M27.239 21.208v.324h.663v-.647h-.664zM34.335 27.918v.35h-.668l.015.333.016.34h.612l.016-.34.015-.332h.613l-.016-.34-.015-.332-.291-.017-.296-.016zM16.311 31.26v2.344h4.494v-4.688H16.31zm3.83.027v1.67h-3.217v-1.632c0-.903.016-1.655.036-1.671s.74-.038 1.608-.038h1.573z"/><path fill="#000" d="M17.588 31.287v1.024h1.942l-.01-1.013-.016-1.008-.955-.016-.96-.011zM27.239 33.28v.324h.663v-.646h-.664z"/><path fill="#084981" d="M2.444 35.245c-.016.038-.016.415-.01.84l.015.782h.409l.025-.431c.025-.415.03-.43.153-.43s.128.015.153.43l.026.431h.408v-.498c0-.404-.02-.512-.097-.603-.117-.135-.444-.157-.54-.033s-.127.055-.127-.258v-.28l-.194-.006c-.109-.005-.211.022-.221.056M8.341 35.178c0 .01-.087.399-.194.868-.158.706-.184.862-.123.884a.1.1 0 0 0 .113-.016c.056-.065.409-1.655.378-1.703-.02-.038-.163-.061-.174-.033M8.99 35.21c-.036.06-.353 1.478-.358 1.602q-.007.106.09.107c.082 0 .118-.095.235-.647.077-.355.164-.738.194-.846s.036-.21.02-.226a.134.134 0 0 0-.181.01M21.316 35.34c0 .151.01.156.194.142.158-.016.189-.038.189-.145s-.026-.13-.19-.14c-.183-.013-.193-.002-.193.143M23.271 35.232c-.02.038-.123.431-.225.868-.153.665-.173.807-.112.83a.114.114 0 0 0 .117-.016c.057-.065.409-1.65.378-1.703-.04-.065-.112-.054-.158.021M29.046 35.216a.4.4 0 0 0-.02.151c0 .113.02.124.234.124s.23-.006.215-.146c-.015-.124-.041-.142-.21-.145a.6.6 0 0 0-.219.016M31.242 35.245c-.015.038-.015.415-.01.84l.015.782h.408l.016-.388c.015-.393.087-.544.235-.485.056.027.082.145.09.453l.015.42h.408v-.492c0-.41-.015-.518-.097-.61-.117-.134-.444-.156-.54-.032s-.128.055-.128-.258v-.28l-.194-.006c-.106-.005-.208.022-.218.056M4.175 35.34c-.09.06-.169.151-.169.205a.2.2 0 0 1-.022.074.15.15 0 0 1-.055.053c-.04.017-.076.087-.076.163q-.002.047.019.09a.2.2 0 0 0 .057.071c.057.022.077.119.077.372 0 .453.062.533.383.512.235-.016.255-.027.255-.151 0-.095-.025-.135-.102-.135-.087 0-.102-.043-.117-.285-.015-.258-.005-.284.117-.332.169-.065.164-.296 0-.296-.082 0-.107-.044-.117-.232-.02-.254-.026-.26-.25-.109M5.17 35.335c-.117.064-.194.145-.194.204a.2.2 0 0 1-.022.078.16.16 0 0 1-.054.057.14.14 0 0 0-.056.053.15.15 0 0 0-.021.077.27.27 0 0 0 .076.172q.077.064.077.372c0 .427.087.544.409.544.137 0 .26-.016.27-.043.04-.07-.052-.253-.123-.253-.045 0-.082-.092-.102-.27-.036-.312-.026-.35.112-.35.072 0 .097-.038.097-.162 0-.134-.02-.161-.123-.161-.112 0-.122-.017-.096-.216.031-.242.016-.253-.25-.102M32.972 35.34c-.09.06-.168.151-.168.205a.2.2 0 0 1-.022.075.15.15 0 0 1-.054.054.14.14 0 0 0-.056.053.15.15 0 0 0-.02.077.27.27 0 0 0 .076.172c.05.047.076.172.076.399 0 .447.061.528.383.506.235-.016.255-.027.255-.15 0-.096-.025-.135-.102-.135-.087 0-.102-.043-.117-.285-.016-.258-.005-.285.117-.333.169-.064.163-.296 0-.296-.081 0-.107-.043-.117-.232-.02-.255-.026-.261-.25-.11M5.916 35.722c-.01.038-.016.41-.01.82l.015.755h.18c.173 0 .18-.006.194-.227l.015-.22.27.026c.25.027.276.022.405-.146.194-.242.2-.673.005-.91a.435.435 0 0 0-.585-.103c-.087.054-.117.054-.135 0-.033-.086-.318-.086-.354.005m.704.291c.123.12.118.405-.01.529-.097.091-.107.091-.204 0-.123-.119-.133-.388-.016-.523.103-.118.113-.118.23-.005M7.397 35.728a.7.7 0 0 0-.01.232c.015.142.035.15.219.15h.204v-.215c0-.21-.005-.215-.194-.232-.132-.01-.199.006-.22.065M9.245 35.696c-.025.047.306 1.024.393 1.132.03.037.122.064.21.053.142-.016.168-.047.26-.323.056-.172.117-.313.133-.313.015 0 .081.143.137.308.09.307.098.312.291.312h.19l.198-.575c.108-.312.18-.587.164-.604a.4.4 0 0 0-.174-.032c-.168 0-.225.092-.275.447-.045.324-.128.308-.225-.047-.087-.333-.139-.399-.312-.399s-.225.065-.312.415c-.035.156-.081.285-.102.285-.045 0-.148-.345-.148-.49a.24.24 0 0 0-.061-.146c-.066-.072-.326-.088-.367-.023M11.344 35.685c-.016.016.056.291.163.604l.199.576h.194c.2 0 .2-.005.291-.312.051-.167.112-.308.138-.308s.082.143.133.308c.097.307.097.312.296.312h.199l.183-.55c.102-.307.21-.544.235-.538.026.005.133.258.235.555l.18.533h.199c.2 0 .2 0 .301-.34.057-.183.112-.332.128-.332.015 0 .077.15.132.34.093.296.118.332.25.35.082.01.17-.005.2-.038.076-.081.44-1.1.409-1.154-.037-.064-.307-.042-.363.028a.9.9 0 0 0-.082.285c-.036.215-.112.398-.143.35a5 5 0 0 1-.117-.35c-.102-.324-.102-.324-.302-.324h-.199l-.086.318c-.046.178-.108.329-.138.34-.03.01-.067-.092-.082-.227-.056-.428-.082-.447-.52-.447-.226 0-.399.026-.42.059q-.06.15-.087.313c-.03.142-.076.258-.107.264-.03.006-.086-.108-.127-.254-.102-.35-.138-.393-.301-.393-.184 0-.235.07-.316.393-.071.313-.153.302-.225-.021a1.5 1.5 0 0 0-.09-.307c-.044-.066-.304-.093-.36-.033M16.301 35.809c-.153.145-.168.19-.168.463 0 .274.015.318.168.464.139.13.21.156.445.156.153 0 .332-.027.405-.064.143-.065.301-.28.25-.333-.066-.064-.393-.032-.48.054-.188.183-.423-.06-.368-.372.041-.21.195-.285.348-.178.143.103.413.113.465.022.02-.033-.031-.124-.128-.215-.138-.13-.204-.152-.465-.152-.26 0-.328.018-.472.155M17.71 35.788c-.07.075-.117.156-.101.182.056.092.352.098.495.011.117-.07.148-.07.22-.01.117.102.06.142-.316.22-.444.096-.602.345-.367.593.112.119.45.146.617.048.077-.038.123-.038.174.005.077.065.419.054.398-.016a4 4 0 0 1-.015-.469c0-.393-.015-.447-.128-.566-.112-.118-.168-.134-.485-.134s-.379.017-.491.136m.598.732c-.135.113-.24.13-.286.048-.076-.135.24-.313.358-.2.03.028.005.082-.072.152M19.294 35.755c-.343.221-.343.814-.006 1.03.225.145.639.145.817-.006.291-.238.291-.776 0-1.019-.173-.145-.592-.145-.811-.005m.495.221c.143.08.138.512-.005.593a.18.18 0 0 1-.205 0c-.127-.076-.137-.404-.015-.55.097-.113.097-.113.225-.043M21.33 35.739c-.01.032-.01.296-.005.593l.015.533h.358V35.69l-.174-.005c-.09-.005-.178.021-.194.054M22.03 36.218v.604c0 .027.087.043.195.043h.188l.026-.356c.026-.355.117-.56.23-.512.09.033.18-.075.18-.22 0-.103-.026-.124-.154-.124a.24.24 0 0 0-.204.091c-.05.092-.05.092-.102 0a.244.244 0 0 0-.204-.092h-.153zM23.634 35.722c-.01.038-.016.41-.01.82l.015.755h.18c.174 0 .18-.006.194-.227l.015-.22.27.026c.25.027.276.022.405-.146.194-.242.2-.673.005-.91a.435.435 0 0 0-.585-.103c-.087.054-.117.054-.135 0-.033-.086-.318-.086-.354.005m.704.291c.123.12.118.405-.01.529-.097.091-.107.091-.204 0-.123-.119-.135-.333-.02-.501.091-.14.112-.146.234-.027M25.227 35.768c-.072.059-.135.14-.135.183 0 .102.311.135.444.043s.296-.075.296.038q0 .08-.306.15c-.169.038-.348.108-.393.157a.346.346 0 0 0 0 .464c.127.118.505.118.633 0 .087-.081.097-.081.158.005q.068.097.215.075l.142-.016-.01-.485c-.015-.641-.081-.728-.567-.728-.268-.002-.369.018-.477.113m.617.716c-.04.108-.28.173-.352.098s.031-.21.18-.238.208.03.172.138zM26.508 35.685c-.015.021.045.145.143.28s.18.264.18.285-.081.167-.18.313-.18.275-.18.296c0 .022.097.033.215.022.183-.011.235-.043.321-.19.056-.095.118-.173.138-.178s.077.086.138.19c.09.172.123.19.337.19.128 0 .23-.016.23-.038a2 2 0 0 0-.21-.324l-.202-.288.204-.26c.112-.142.194-.274.173-.296-.02-.021-.117-.032-.225-.032-.153 0-.214.032-.3.161-.062.087-.128.162-.144.162s-.066-.075-.097-.162c-.05-.145-.081-.161-.28-.161-.13-.002-.24.014-.26.03M28.076 35.722a6 6 0 0 0-.01.61l.015.533h.36l.03-.36c.031-.373.113-.556.235-.508.077.033.245-.204.194-.29-.045-.076-.296-.07-.378.01-.056.054-.071.054-.09 0-.034-.086-.32-.086-.356.005M29.046 35.733c-.015.033-.015.302-.01.599l.015.533h.409v-1.18l-.194-.011c-.113-.002-.21.022-.22.06M29.823 35.82c-.235.29-.139.83.168.959.153.07.23.065.429-.022.076-.032.09-.02.076.081-.02.178-.168.26-.296.173a.7.7 0 0 0-.28-.065c-.144 0-.18.022-.18.108 0 .178.24.296.597.296.275 0 .336-.021.454-.142.128-.143.135-.162.138-.836.005-.69.005-.695-.112-.712a.44.44 0 0 0-.246.047c-.09.054-.133.054-.18.005-.035-.037-.148-.064-.25-.064-.145.005-.216.042-.318.172m.584.156c.118.07.136.388.021.485-.204.178-.419-.145-.26-.399.099-.156.104-.161.241-.086zM33.785 35.777c-.235.258-.103.544.285.608.246.044.399.143.348.227s-.25.08-.327 0c-.087-.092-.353-.103-.419-.016-.04.054-.02.095.082.183.101.088.21.113.464.113.296 0 .348-.016.48-.156.082-.086.149-.194.149-.237 0-.173-.184-.324-.486-.389-.163-.032-.31-.09-.321-.123-.03-.096.143-.146.25-.076s.434.086.48.017c.015-.027-.036-.103-.108-.162-.204-.167-.724-.162-.877.01M7.412 36.44c-.02.021-.036.134-.036.248v.21l.22-.017c.214-.016.214-.016.214-.231s-.005-.216-.18-.232c-.1-.01-.198 0-.218.022M15.413 36.482a.7.7 0 0 0-.01.232c.015.143.03.151.234.151.118 0 .215-.016.215-.043v-.226c0-.183-.005-.19-.204-.19-.133.001-.22.026-.235.076M20.545 36.429c0 .016-.006.124-.006.231l-.005.205h.45v-.215c0-.216 0-.216-.214-.232-.123-.01-.22-.005-.225.01"/></svg>