<svg xmlns="http://www.w3.org/2000/svg" width="40" height="38" fill="none"><g clip-path="url(#a)"><path fill="#233F9F" fill-rule="evenodd" d="M8.927 30.91a3 3 0 0 1-.097.3q-.385.999-.923 1.191a1.7 1.7 0 0 1-.385.145l-.593.168a2 2 0 0 1-.142.025q-.088.011-.1-.013-.01-.023.11-.108l.143-.096q.011-.013.407-.265 1.142-.747 1.142-1.168a.8.8 0 0 1-.297.048q-.494-.084-.494-.433 0-.265.242-.747.275-.53.483-.53a.52.52 0 0 1 .401.193q.17.193.17.446.01.08.011.247a.5.5 0 0 0 .303-.172.3.3 0 0 0 .07-.085q.049-.073.07-.073l.065.049a.12.12 0 0 0 .076.024q.184 0 .292-.193.075-.145.097-.145.033.024.108.072.195.05.378-.362.054 0 .13.06a.6.6 0 0 0 .14-.048.8.8 0 0 1 .054.23.55.55 0 0 1-.054.265q-.162.181-.346.278l-.335.181q-.021 0-.248.097l-.12.049-.194.108-.107.036a4 4 0 0 0-.457.226m8.387-.218.016-.032q0 .996.623.996a.75.75 0 0 0 .558-.252q.208-.264.416-.516a.3.3 0 0 0 .076-.072q.024-.033.043-.055.066-.21.199-.45.421-.765.864-.765l.108.012q.01.034.018.07.15.06.177.059.147 0 .315-.303.084-.15.126-.14.084.023.01.233-.03.105-.084.222-.272.652-.597.652v-.007a.5.5 0 0 1-.138-.058 1 1 0 0 0-.151-.074q-.119-.025-.275.105t-.157.265l-.003.002q.027.09.18.322.185.282.186.294 0 .132-.17.366t-.29.233a.7.7 0 0 1-.235-.071.7.7 0 0 0-.257-.072q-.165 0-.284.155a3 3 0 0 0-.208.36 2 2 0 0 1-.197.324q-.285.372-.569.372-.394 0-.59-.444a2 2 0 0 1-.153-.827l.019-.04-.02.002q0-.825.32-2.942.075-.323.439-1.16l.043-.024a.6.6 0 0 1-.01.191l-.044.311-.187 1.46q-.1.777-.1 1.232-.007.033-.017.066m7.248-.632q.157-.165.23-.328.218-.537.293-.732.164-.39.435-.391.206 0 .347.22.206-.39.25-.39.066 0 .152.146a.5.5 0 0 1 .087.232 1 1 0 0 1-.141.524q-.164.27-.413.269-.076 0-.206-.061a.5.5 0 0 0-.206-.062q-.165 0-.272.245-.27.598-.304.658a5 5 0 0 1-.365.572 3 3 0 0 1-.059.168q-.386 1.001-.926 1.194a1.7 1.7 0 0 1-.386.145l-.595.169a2 2 0 0 1-.143.024q-.089.012-.1-.012-.01-.024.11-.109l.144-.096q.01-.012.408-.266 1.146-.748 1.147-1.17a.8.8 0 0 1-.298.048q-.496-.084-.497-.434 0-.265.243-.748.276-.53.485-.53.232 0 .403.192.17.194.17.447.004.03.007.076m8.196.315v.185q0 .78.449.779.096-.276.235-.635.267.06.298.431 0 .443-.17.863-.235.563-.63.563-.225 0-.406-.245a1 1 0 0 1-.203-.504 7 7 0 0 1-.021-.293v-.228l.016-.034-.016.001q0-.82.318-2.93.077-.322.44-1.155l.043-.024a.6.6 0 0 1-.011.19l-.044.31-.186 1.453q-.1.775-.1 1.227zm4.032.883h-.01q0-.82.319-2.93.077-.322.44-1.155l.043-.024a.6.6 0 0 1-.011.19l-.044.31-.186 1.453q-.1.775-.1 1.227-.004.018-.009.035l.007.008q0 .417.066.678.152.416.6.416.293.001.524-.214.273-.262.349-.285a.5.5 0 0 1 .142-.012q.087.012.153.012.098 0 .141-.036a.57.57 0 0 0 .197-.262q.021-.083.054-.178.077.012.153.012.132 0 .251-.381.056-.167.087-.167.044 0 .044.107 0 .333-.175.702-.207.44-.48.44a3 3 0 0 1-.163.25q-.143.18-.262.18a1.3 1.3 0 0 0-.208-.025q-.185 0-.556.524-.294.428-.655.428-.72 0-.72-1.261zM23.313 4.485c.02.055.048.104.053.141 1.031 1.9 1.482 4.241 1.095 6.437-.335 2.24-1.496 4.323-3.186 5.577-1.625 1.27-3.657 1.858-5.623 1.615-2.535-.218-4.802-2.004-6.183-4.352-.847-1.504-1.817-2.943-3.047-4.075-.983-.854-2.277-1.471-3.527-1.101C1.797 8.979.865 9.729 0 10.493.57 8.597 1.762 6.725 3.564 6.2c1.143-.4 2.337-.108 3.475.146.135-1.012.948-1.76 1.824-1.884.551-.153 1.121-.12 1.685-.09-.397.38-.892.689-1.075 1.274-.274.828.024 1.71.372 2.449.422.895.97 1.78 1.054 2.814.061.663-.36 1.178-.711 1.643.337.815.987 1.434 1.711 1.788.967.484 2.02.684 3.06.839 1.889.043 3.907-.462 5.329-1.943.82-.932 1.399-2.216 1.338-3.552.1-2.472-1.53-4.637-3.447-5.62a7.96 7.96 0 0 0-3.76-.835c-.727.015-1.684-.34-2.179.464.001-.534-.054-1.185.396-1.529.554-.39 1.242-.492 1.884-.443.008.277.264.57.512.414.24-.05.258-.327.25-.551q-.59.008-1.173.085l.066-.484C14.615.268 15.611 0 16.47 0c2.162-.025 4.396.97 5.789 2.871.333.484.69.95.968 1.468a.5.5 0 0 0 .085.146m-3.738 1.412c.88.677 1.147 1.948 1.374 3.056-3.375-.015-6.752.017-10.126-.015-.228-.236-.353-.561-.5-.859a5.6 5.6 0 0 1-.436-2.186c3.228.001 6.458-.008 9.688.004m20.379-.045q-.095.205-.183.414c-.353.765-1.017 1.257-1.686 1.625-1.289.668-2.714.883-4.113 1.03-2.98.061-5.963 0-8.945.027-.002-1.058-.23-2.106-.569-3.09 5.166.009 10.33.021 15.496-.006m-3.135 3.605c-.582.85-1.28 1.63-2.16 2.078-1.524.81-3.236.896-4.886 1.041-1.747.017-3.492 0-5.237.008.384-.976.636-2.05.571-3.124 3.905.01 7.809.006 11.712-.003m-15.73.219c-.136.583-.146 1.202-.37 1.758-.154.458-.458.817-.76 1.16-3.1 0-6.2-.016-9.3.006.236-.251.437-.537.626-.832.31-.68.119-1.445-.154-2.094 3.32.008 6.64.003 9.959.002m14.904 20.883-.129.596q-.171.572-.279.767-.204.39-.527.535l-.387.183q-.258.122-.505.122-.054 0-.065-.05-.032-.108.301-.4.108-.098.43-.378.42-.365.688-.9.066-.123.28-.865l.129-.438q.107-.377.172-.377.053.085.054.122 0 .34-.162 1.083m.295-2.636q-.194.429-.366.429-.12-.11-.345-.307-.227-.195-.227-.27l.022-.048.237-.589q.043-.098.216-.429l.043-.061a.8.8 0 0 0 .15.122q.206.172.249.245.118.172.15.331.034.21-.129.577m-6.183 2.63a.76.76 0 0 1-.132.419q-.263.407-.384.431-.022 0-.098-.06-.254-.191-.264-.215a.9.9 0 0 0-.186-.12q-.11-.084-.12-.168l.251-.623q.12-.227.209-.371l.066-.108q.076.036.23.132.186.156.263.24a.53.53 0 0 1 .154.311q.01.048.01.132m1.228 1.186q-.537 1.797-1.777 2.54a2.1 2.1 0 0 1-1.096.287q-.681 0-1.053-.462-.373-.46-.373-1.215 0-1.187.932-2.935.11-.204.164-.192.023.012.012.132-.022.12-.045.204l-.361.862q-.264.623-.264 1.078 0 1.258 1.272 1.258 1.36 0 2.15-1.342.252-.42.263-.97l.022-.862q.012-.36.187-.851l.22-.467q.087-.192.142-.252.054.06.043.156l-.055.42-.054.598q0 .527-.165 1.318-.098.479-.164.695m-5.74.71q-.33.581-.33.925l.181.178q.17.178.17.261 0 .166-.09.315-.09.148-.238.148-.273 0-.272-.463 0-.273.306-1.056.318-.83.499-.794-.114.237-.227.486m-3.452-4.262a3 3 0 0 1 .1-.18.3.3 0 0 1 .055-.072q.033.06.033.096l-.055.408-.067.672-.121 1.068q-.078.66-.266 1.092l-.255.577q-.232.515-.366.516l-.033-.084q.343-1.272.432-2.088l.078-.756.121-.373zm-1.562 7.836q-.236.37-.398.37-.01 0-.278-.287-.27-.286-.27-.31 0-.048.27-.562.236-.455.278-.455.044 0 .216.18.322.346.322.585a.86.86 0 0 1-.14.479m-.57 1.506q-.235.37-.397.37-.01 0-.279-.287-.268-.285-.268-.31 0-.048.268-.562.236-.454.28-.454.043 0 .214.179.322.346.322.586a.86.86 0 0 1-.14.478m-.493-1.507q-.237.371-.397.371-.012 0-.28-.287-.268-.286-.268-.31 0-.048.268-.562.236-.455.28-.455.043 0 .214.18.322.346.322.585a.86.86 0 0 1-.14.479m-1.62 1.494q-.2.413-.376.413a14 14 0 0 0-.353-.295q-.232-.188-.232-.26l.022-.046.243-.567q.045-.094.22-.413l.045-.059q.044.048.155.118.21.165.254.236.12.165.155.319.032.2-.133.554m-1.138.071q-.2.413-.375.413-.123-.106-.354-.295-.232-.189-.232-.26l.022-.047.243-.566q.045-.094.221-.413l.044-.059q.044.046.155.118.21.165.254.236.12.165.154.318.034.202-.132.555m-1.532-7.53q.242-.627.242-.845 0-.132-.21-.627-.186-.35-.176-.398.221-.784.375-1.158.232.073.387.531.132.374.132.7 0 .434-.265 1.205-.133.387-.43 1.183 0 .132.309.3.286.218.287.664 0 .857-.436 1.803-.435.947-1.065 1.417-.462.35-1.037.35-.694 0-1.059-.543-.33-.483-.33-1.266 0-.724.397-1.785l.264-.663q.023-.06.243-.543.265-.591.32-.579.056.012.033.133a1.6 1.6 0 0 1-.066.253l-.53 1.35q-.254.652-.254 1.086 0 1.254 1.192 1.254.662 0 1.247-.373.695-.447.695-1.11 0-.023-.392-.29-.392-.264-.392-.494 0-.277.144-.627.241-.579.375-.929m-.104 7.46q-.2.412-.376.412-.121-.106-.353-.295-.232-.188-.232-.26l.022-.046.243-.567a9 9 0 0 1 .22-.413l.045-.059q.044.048.155.118.21.165.254.236.12.165.155.319.033.2-.133.554m-1.138.07q-.2.413-.375.413-.123-.106-.354-.295-.232-.189-.232-.26l.022-.047.243-.566q.044-.094.221-.413l.044-.059q.044.046.155.118.21.165.254.236.12.165.155.318.033.202-.133.555m-3.196-8.248a.6.6 0 0 0 .134-.144q.245-.346.234-.993l-.011-.802q-.011-.597.066-.801l.402-1.065a1 1 0 0 1 .056-.024.3.3 0 0 1 .01.096q0 .203-.021.562-.023.419-.023.575-.021.897-.078 1.351-.122.922-.49 1.412-.045.06-.279.323zm2.28-5.677 1.401-1.241q.405-.362.964-.929.153-.156.864-.916a37 37 0 0 0 .822-.892q0 .06-.023.108-.142.724-1.192 1.881-.482.53-1.457 1.423l-1.62 1.398-.754.651q-.46.399-.482.362.174-.53.46-.868.262-.3 1.017-.977m-2.596 2.463q-.197.418-.374.418-.12-.107-.352-.298-.231-.192-.231-.263l.022-.048.242-.574a9 9 0 0 1 .22-.418l.044-.06a1 1 0 0 0 .155.12q.208.167.252.239.121.167.155.323.032.203-.133.561M9.9 24.643q-.198.42-.374.419-.033 0-.353-.287-.23-.203-.23-.275l.022-.048.242-.574q.043-.095.22-.418l.044-.06q.043.049.154.12a1.3 1.3 0 0 1 .253.239q.12.168.154.323.033.203-.132.561m-.562 1.554q-.197.418-.373.418a16 16 0 0 0-.353-.299q-.231-.191-.231-.262l.022-.048.242-.574q.045-.095.22-.418l.044-.06a1 1 0 0 0 .155.12q.208.166.253.239a.9.9 0 0 1 .154.322q.033.204-.133.562m-2.99 4.338-.13.597q-.17.574-.277.769-.205.39-.526.536l-.386.184a1.2 1.2 0 0 1-.504.121q-.054 0-.064-.048-.033-.11.3-.403.107-.097.429-.378.418-.366.686-.903.064-.121.279-.866l.128-.439q.108-.378.172-.378.053.086.054.122 0 .342-.161 1.086m-1.385-1.997a5 5 0 0 1-.13.288q-.088.145-.153.145-.12-.096-.152-.096-.315 0-.794.48-.589.59-.588.83a.36.36 0 0 0 .076.205l.196.108q.424.133.424.662 0 .577-.195 1.28-.196.704-.48 1.185-.729 1.227-1.86 1.227-.621 0-.964-.439Q0 33.973 0 33.277q0-1.011.512-2.226l.565-1.347q.12-.288.175-.288.076 0 .076.108a.3.3 0 0 1-.022.132q-.904 2.178-.904 2.875 0 .528.37.806.316.24.817.24.881 0 1.448-.673.446-.53.446-.902 0-.133-.37-.241-.49-.144-.49-.637 0-.831.784-1.937.304-.42.555-.685.685-.71 1.121-.782.098.072.087.156a3 3 0 0 1-.207.662" clip-rule="evenodd"/></g><defs><clipPath id="a"><path fill="#fff" d="M0 0h40v38H0z"/></clipPath></defs></svg>