<svg xmlns="http://www.w3.org/2000/svg" width="78" height="74" fill="none"><g clip-path="url(#a)"><path fill="#233F9F" fill-rule="evenodd" d="M17.407 60.192q-.076.288-.19.584-.75 1.947-1.798 2.321-.3.165-.75.282l-1.157.328a4 4 0 0 1-.278.047q-.17.023-.193-.024-.02-.045.214-.21l.279-.188q.021-.024.792-.516 2.228-1.454 2.228-2.274-.215.094-.579.094-.963-.164-.964-.845 0-.515.472-1.453.534-1.032.942-1.032.45 0 .782.375.331.376.331.868.02.156.022.482a.95.95 0 0 0 .59-.336.6.6 0 0 0 .137-.165q.095-.141.137-.141l.126.094a.24.24 0 0 0 .148.047q.358 0 .57-.376.146-.283.189-.283.063.048.21.141.38.095.738-.706.105 0 .253.118.19-.047.274-.094.105.306.105.447 0 .33-.105.518a2.4 2.4 0 0 1-.675.541l-.653.353q-.042 0-.485.188l-.232.095-.379.211-.21.07q-.21.07-.89.44m16.356-.423.03-.063q0 1.94 1.216 1.94.617 0 1.088-.492.405-.513.81-1.004a.5.5 0 0 0 .149-.14l.083-.107q.13-.405.389-.877.822-1.49 1.685-1.49l.21.024q.021.067.036.135.293.117.345.117.285 0 .613-.59.164-.295.246-.272.164.044.02.453-.06.204-.163.431-.533 1.27-1.166 1.27v-.013a1 1 0 0 1-.268-.113 1.6 1.6 0 0 0-.295-.144q-.231-.048-.537.204t-.305.517l-.007.004q.053.175.35.627.363.548.364.572 0 .257-.331.712-.33.456-.565.455-.128 0-.458-.14-.331-.14-.502-.14-.32 0-.554.303-.108.141-.406.702-.213.42-.384.63-.555.724-1.108.724-.768 0-1.152-.864-.298-.678-.298-1.611l.037-.076-.037.003q0-1.607.62-5.73.15-.629.858-2.26l.085-.046q.022.07-.021.373l-.086.606-.364 2.841q-.192 1.515-.193 2.4zm14.133-1.232q.307-.318.448-.639.425-1.045.573-1.425.318-.76.847-.76.402 0 .677.427.401-.76.488-.76.126 0 .296.285t.17.451q0 .57-.276 1.022-.318.523-.805.523-.148 0-.402-.119-.255-.12-.402-.12-.318.001-.53.476-.528 1.164-.592 1.283-.364.654-.712 1.114a6 6 0 0 1-.116.326q-.752 1.95-1.805 2.326-.301.165-.753.281l-1.16.33a4 4 0 0 1-.28.047q-.17.022-.193-.024-.02-.047.215-.211l.28-.188q.02-.025.795-.517 2.236-1.456 2.236-2.279-.217.094-.581.094-.968-.164-.968-.846 0-.517.474-1.456.537-1.034.945-1.034.452 0 .785.376t.333.87q.008.06.013.147m15.983.614v.36q0 1.518.874 1.517.188-.536.459-1.236.519.117.582.84 0 .863-.333 1.68-.458 1.098-1.228 1.097-.436 0-.792-.479-.353-.477-.395-.98a14 14 0 0 1-.042-.572v-.443l.032-.066-.032.002q0-1.6.62-5.706.15-.626.857-2.25l.085-.046q.022.07-.021.37l-.085.604-.364 2.83q-.193 1.508-.194 2.39zm7.861 1.72h-.017q0-1.6.62-5.706.15-.626.856-2.25l.086-.046q.021.07-.022.37l-.085.604-.364 2.83q-.192 1.508-.193 2.39l-.018.067.014.015q0 .811.127 1.32.298.812 1.17.812.575 0 1.022-.418.533-.508.68-.555.064-.024.277-.024.17.024.299.024.191 0 .276-.07.255-.184.383-.51.043-.161.106-.347.15.023.299.023.255 0 .49-.742.105-.324.17-.324.084 0 .084.208 0 .65-.34 1.368-.405.857-.936.857a5 5 0 0 1-.32.487q-.277.347-.51.347a2.4 2.4 0 0 0-.405-.046q-.361 0-1.085 1.02-.574.834-1.277.834-1.404 0-1.404-2.457zM45.46 8.734c.038.106.094.203.103.275 2.012 3.698 2.89 8.259 2.136 12.534-.654 4.364-2.916 8.42-6.214 10.862-3.167 2.472-7.13 3.617-10.964 3.144-4.943-.425-9.363-3.903-12.057-8.476-1.651-2.927-3.543-5.73-5.941-7.934-1.916-1.663-4.44-2.865-6.878-2.145-2.141.491-3.96 1.952-5.645 3.44 1.112-3.693 3.435-7.337 6.95-8.358 2.228-.779 4.557-.21 6.777.283.262-1.97 1.847-3.427 3.557-3.668 1.074-.297 2.186-.232 3.284-.176-.773.741-1.739 1.342-2.096 2.482-.535 1.612.047 3.332.725 4.768.823 1.744 1.892 3.466 2.056 5.48.12 1.291-.7 2.294-1.387 3.201.657 1.586 1.925 2.791 3.338 3.481 1.884.944 3.938 1.333 5.968 1.634 3.68.083 7.616-.9 10.39-3.785 1.598-1.814 2.727-4.313 2.609-6.916.195-4.814-2.983-9.03-6.722-10.946-2.3-1.16-4.82-1.674-7.333-1.624-1.416.03-3.282-.663-4.248.904.003-1.04-.106-2.308.773-2.977 1.08-.759 2.422-.959 3.673-.863.016.538.514 1.11.998.806.468-.098.503-.637.487-1.074a20 20 0 0 0-2.287.167l.13-.943C28.499.522 30.442 0 32.117 0c4.216-.05 8.572 1.89 11.287 5.59.65.943 1.347 1.85 1.888 2.858a.9.9 0 0 0 .167.285m-7.288 2.75c1.715 1.318 2.236 3.794 2.678 5.95-6.581-.03-13.166.033-19.745-.03-.445-.457-.688-1.091-.976-1.671-.575-1.333-.84-2.785-.85-4.257 6.296.003 12.595-.015 18.893.008m39.738-.089q-.186.4-.357.806c-.688 1.49-1.982 2.449-3.287 3.166-2.514 1.3-5.293 1.72-8.021 2.005-5.811.12-11.628 0-17.442.053-.003-2.061-.45-4.102-1.11-6.018 10.073.018 20.145.042 30.217-.012m-6.113 7.021c-1.135 1.654-2.498 3.175-4.213 4.046-2.972 1.58-6.309 1.747-9.527 2.029-3.406.033-6.81 0-10.212.015.749-1.9 1.24-3.992 1.114-6.084 7.613.018 15.227.012 22.838-.006m-30.672.426c-.267 1.136-.286 2.341-.725 3.424-.299.892-.892 1.592-1.48 2.258-6.044 0-12.09-.03-18.135.012.46-.488.852-1.044 1.22-1.619.606-1.324.233-2.814-.299-4.078 6.473.015 12.946.006 19.42.003m29.062 40.667-.252 1.161q-.335 1.115-.544 1.493-.4.76-1.028 1.043l-.755.356a2.3 2.3 0 0 1-.985.237q-.105 0-.126-.095-.063-.213.588-.782.21-.189.838-.735a5.7 5.7 0 0 0 1.342-1.753q.126-.238.545-1.683l.251-.854q.21-.734.336-.734.105.166.105.237 0 .664-.315 2.11m.575-5.133q-.378.835-.714.835-.233-.215-.674-.596-.441-.382-.441-.526l.042-.095.462-1.146q.084-.19.422-.836l.083-.119q.084.096.295.239.399.334.483.477.231.335.294.645.064.406-.252 1.122m-12.058 5.121q0 .42-.257.817-.513.793-.748.84-.044 0-.192-.117-.494-.373-.514-.42-.32-.233-.364-.233-.214-.164-.235-.327l.492-1.213a14 14 0 0 1 .406-.723l.129-.21q.15.07.449.257.363.303.513.466.278.304.3.607.02.094.021.256m2.395 2.31q-1.048 3.5-3.464 4.945-.941.56-2.139.56-1.327 0-2.053-.898-.727-.898-.727-2.368 0-2.31 1.817-5.715.215-.396.321-.373.043.023.022.257-.045.233-.086.396l-.705 1.68q-.514 1.213-.514 2.099 0 2.45 2.48 2.45 2.653 0 4.193-2.613.491-.817.513-1.89l.043-1.68q.02-.699.363-1.656l.428-.91q.17-.372.278-.49.107.118.085.304l-.107.816-.107 1.167q0 1.026-.32 2.566a17 17 0 0 1-.32 1.353M49.906 63.19q-.642 1.131-.642 1.802l.354.347q.333.346.332.508 0 .324-.177.612-.178.29-.465.29-.53 0-.53-.902 0-.531.597-2.056.618-1.618.973-1.548-.222.462-.442.947m-6.73-8.299q.043-.093.194-.35a.7.7 0 0 1 .108-.14q.065.117.065.186l-.108.795-.13 1.309-.237 2.08q-.15 1.285-.519 2.126l-.496 1.122q-.454 1.005-.713 1.005l-.066-.164q.67-2.476.843-4.066l.151-1.472.238-.725zM40.129 70.15q-.46.722-.775.722-.02 0-.544-.559-.525-.558-.524-.605 0-.093.524-1.094.46-.885.544-.885.083 0 .42.35.627.675.627 1.14 0 .513-.272.931m-1.11 2.933q-.46.722-.775.722-.022 0-.544-.559-.523-.558-.523-.605 0-.093.523-1.094.46-.885.544-.885.083 0 .42.35.627.675.627 1.14 0 .513-.272.931m-.963-2.933q-.461.722-.774.722-.023 0-.545-.559-.525-.558-.524-.605 0-.093.523-1.094.461-.885.546-.885.083 0 .418.35.628.675.627 1.14 0 .513-.271.931m-3.159 2.91q-.388.803-.733.803-.236-.207-.688-.574-.453-.368-.453-.505l.043-.092q.13-.3.474-1.104.086-.183.43-.804l.087-.115q.085.093.302.23.41.322.495.46.236.321.302.62.064.39-.259 1.08m-2.22.137q-.386.804-.73.804-.24-.208-.69-.574-.453-.368-.453-.506l.043-.092.474-1.103q.085-.183.431-.804l.086-.115q.086.093.302.23.409.32.495.46.237.32.301.62.065.39-.258 1.08M29.692 58.53q.472-1.221.472-1.644 0-.259-.408-1.221-.365-.681-.345-.775.432-1.527.732-2.255.45.142.753 1.033.258.729.258 1.363 0 .845-.517 2.348a98 98 0 0 1-.838 2.302q0 .258.602.587.559.423.56 1.291 0 1.667-.85 3.512-.85 1.843-2.077 2.759a3.28 3.28 0 0 1-2.021.681q-1.355 0-2.065-1.057-.646-.939-.646-2.466 0-1.41.775-3.475.086-.213.516-1.292.044-.117.474-1.057.515-1.15.623-1.127t.064.258q-.065.33-.128.493l-1.033 2.63q-.495 1.268-.495 2.114 0 2.442 2.323 2.442 1.29 0 2.431-.727 1.355-.87 1.355-2.16 0-.048-.764-.565-.763-.516-.762-.963 0-.54.279-1.22.473-1.128.732-1.81m-.203 14.527q-.388.804-.733.804-.237-.207-.689-.574-.452-.368-.452-.505l.043-.092.474-1.104q.085-.183.43-.804l.086-.115q.086.093.303.23.409.322.495.46.236.321.301.62.065.39-.258 1.08m-2.22.138q-.386.804-.731.804a31 31 0 0 0-.69-.574q-.452-.368-.452-.506l.043-.092.473-1.103q.087-.183.432-.804l.086-.115q.085.093.302.23.408.32.495.46.236.32.301.62.065.39-.258 1.08m-6.23-16.063q.108-.07.26-.28.478-.676.456-1.933l-.022-1.561q-.02-1.165.13-1.561l.784-2.074a1 1 0 0 1 .108-.047.5.5 0 0 1 .022.187q0 .396-.044 1.095-.043.816-.043 1.118-.044 1.748-.152 2.633-.24 1.795-.957 2.75-.087.116-.543.629zm4.445-11.054 2.732-2.418a42 42 0 0 0 1.879-1.808q.298-.305 1.686-1.784 1.473-1.573 1.601-1.737a.5.5 0 0 1-.043.211q-.277 1.409-2.326 3.663-.94 1.033-2.84 2.77-.086.07-3.158 2.724l-1.472 1.267q-.898.775-.94.705.34-1.033.896-1.69.512-.588 1.985-1.903m-5.062 4.796q-.385.815-.73.815-.236-.21-.686-.582t-.45-.512l.042-.093.472-1.117q.085-.186.43-.815l.085-.116q.085.094.301.233.407.325.494.465a1.7 1.7 0 0 1 .3.629q.064.395-.258 1.093m-1.116-2.885q-.387.815-.73.815-.064 0-.687-.56-.45-.395-.45-.534l.043-.093.472-1.118q.085-.186.429-.814l.086-.117q.085.094.3.233.409.327.494.465.236.327.3.629.065.395-.257 1.094m-1.095 3.025q-.386.814-.729.814-.237-.21-.687-.581-.45-.372-.451-.512l.043-.093.472-1.117q.085-.186.43-.815l.085-.116q.086.093.301.232.407.327.493.466.236.326.3.628.066.396-.257 1.094m-5.832 8.447-.251 1.164q-.335 1.117-.543 1.496-.398.761-1.024 1.045l-.754.357a2.3 2.3 0 0 1-.982.238q-.105 0-.125-.096-.063-.213.586-.783.208-.19.835-.737a5.7 5.7 0 0 0 1.338-1.757q.126-.238.544-1.687l.25-.855q.21-.736.336-.736.103.166.104.237 0 .666-.314 2.114m-2.7-3.888a9 9 0 0 1-.254.562q-.171.28-.297.28-.234-.187-.298-.187-.615 0-1.548.937-1.147 1.148-1.147 1.616 0 .188.149.399l.381.21q.829.258.828 1.288 0 1.125-.381 2.495-.383 1.37-.935 2.307-1.421 2.388-3.629 2.389-1.21 0-1.88-.855Q0 66.16 0 64.802q0-1.967.998-4.334L2.1 57.846q.235-.561.34-.562.15 0 .15.211a.6.6 0 0 1-.043.258Q.785 61.992.785 63.349q0 1.03.722 1.57.615.468 1.591.468 1.72 0 2.824-1.312.87-1.03.87-1.756 0-.258-.721-.469-.957-.28-.956-1.24 0-1.617 1.528-3.771.594-.82 1.083-1.335 1.338-1.383 2.186-1.523.19.14.17.304-.085.54-.403 1.289" clip-rule="evenodd"/></g><defs><clipPath id="a"><path fill="#fff" d="M0 0h78v74H0z"/></clipPath></defs></svg>